<svg width="72" height="73" viewBox="0 0 72 73" fill="none" xmlns="http://www.w3.org/2000/svg">
<path d="M63.6302 67.2397C63.6302 66.8797 63.7235 66.3597 63.9102 65.6797C64.1102 64.9864 64.3635 64.2264 64.6702 63.3997C64.9769 62.5597 65.3235 61.6997 65.7102 60.8197C66.0969 59.9264 66.4835 59.093 66.8702 58.3197C67.2702 57.5464 67.6502 56.8797 68.0102 56.3197C68.3702 55.7464 68.6835 55.3664 68.9502 55.1797C69.1635 55.2197 69.3902 55.3197 69.6302 55.4797C69.8835 55.6264 70.1169 55.7997 70.3302 55.9997C70.5435 56.1864 70.7302 56.3864 70.8902 56.5997C71.0502 56.813 71.1435 56.9997 71.1702 57.1597C70.4902 57.7197 69.8169 58.4197 69.1502 59.2597C68.4835 60.0864 67.8635 61.0064 67.2902 62.0197C66.7302 63.033 66.2369 64.1197 65.8102 65.2797C65.3835 66.4264 65.0635 67.5997 64.8502 68.7997C64.6902 68.7597 64.5302 68.713 64.3702 68.6597C64.2235 68.593 64.0969 68.5064 63.9902 68.3997C63.8835 68.293 63.7969 68.1464 63.7302 67.9597C63.6635 67.773 63.6302 67.533 63.6302 67.2397ZM63.1902 72.5397C63.0302 72.5397 62.8769 72.4997 62.7302 72.4197C62.5835 72.353 62.4502 72.2664 62.3302 72.1597C62.2235 72.0664 62.1369 71.9597 62.0702 71.8397C62.0035 71.733 61.9702 71.6464 61.9702 71.5797C61.9702 71.4197 61.9902 71.213 62.0302 70.9597C62.0702 70.7064 62.1302 70.4664 62.2102 70.2397C62.2902 69.9997 62.3902 69.7997 62.5102 69.6397C62.6302 69.4664 62.7635 69.3797 62.9102 69.3797C63.2835 69.3797 63.6569 69.513 64.0302 69.7797C64.4169 70.033 64.7035 70.3197 64.8902 70.6397C64.7302 70.813 64.5902 71.0064 64.4702 71.2197C64.3502 71.4464 64.2302 71.653 64.1102 71.8397C63.9902 72.0397 63.8569 72.2064 63.7102 72.3397C63.5635 72.473 63.3902 72.5397 63.1902 72.5397Z" fill="white"/>
<path d="M60.9845 62.7201C60.9312 63.5467 60.7845 64.2601 60.5445 64.8601C60.3045 65.4467 59.9578 65.9667 59.5045 66.4201C59.0645 66.8601 58.5245 67.2601 57.8845 67.6201C57.2445 67.9801 56.4978 68.3267 55.6445 68.6601C55.6445 68.7401 55.6378 68.8267 55.6245 68.9201C55.6245 69.0001 55.6245 69.0867 55.6245 69.1801C55.6245 69.3534 55.6378 69.5334 55.6645 69.7201C55.6912 69.9067 55.7378 70.0801 55.8045 70.2401C55.8712 70.4001 55.9645 70.5334 56.0845 70.6401C56.2045 70.7334 56.3578 70.7801 56.5445 70.7801C56.9045 70.7801 57.2578 70.7001 57.6045 70.5401C57.9512 70.3801 58.2778 70.1867 58.5845 69.9601C58.9045 69.7201 59.1978 69.4667 59.4645 69.2001C59.7445 68.9201 59.9912 68.6667 60.2045 68.4401C60.3378 68.5601 60.4512 68.6734 60.5445 68.7801C59.9445 69.5801 59.2845 70.2467 58.5645 70.7801C57.8578 71.3001 57.1845 71.6334 56.5445 71.7801C55.6245 71.6734 54.9045 71.3401 54.3845 70.7801C53.8778 70.2067 53.6245 69.5201 53.6245 68.7201C53.6245 68.1734 53.6978 67.6201 53.8445 67.0601C54.0045 66.4867 54.2178 65.9401 54.4845 65.4201C54.7645 64.8867 55.0845 64.3867 55.4445 63.9201C55.8178 63.4534 56.2112 63.0467 56.6245 62.7001C57.0512 62.3534 57.4845 62.0801 57.9245 61.8801C58.3778 61.6801 58.8245 61.5801 59.2645 61.5801C59.8778 61.6601 60.4512 62.0401 60.9845 62.7201ZM59.6045 63.3801C59.2445 63.4334 58.8712 63.5801 58.4845 63.8201C58.0978 64.0601 57.7312 64.3801 57.3845 64.7801C57.0512 65.1801 56.7445 65.6467 56.4645 66.1801C56.1845 66.7134 55.9645 67.2867 55.8045 67.9001C56.8712 67.3667 57.7578 66.7134 58.4645 65.9401C59.1712 65.1534 59.5512 64.3001 59.6045 63.3801Z" fill="white"/>
<path d="M44.478 70.5999C44.5447 70.2132 44.658 69.7066 44.818 69.0799C44.9914 68.4399 45.1914 67.7666 45.418 67.0599C45.6447 66.3399 45.8847 65.6199 46.138 64.8999C46.3914 64.1799 46.638 63.5332 46.878 62.9599C47.0514 62.5466 47.2047 62.2266 47.338 61.9999C47.4714 61.7599 47.618 61.5599 47.778 61.3999C47.9647 61.4266 48.158 61.4732 48.358 61.5399C48.558 61.6066 48.7514 61.6866 48.938 61.7799C49.1247 61.8732 49.2914 61.9732 49.438 62.0799C49.5847 62.1732 49.698 62.2666 49.778 62.3599C49.418 62.7866 49.098 63.2732 48.818 63.8199C48.5514 64.3666 48.278 65.0666 47.998 65.9199C48.718 65.2799 49.3514 64.6666 49.898 64.0799C50.458 63.4932 50.978 62.8399 51.458 62.1199C51.538 62.0532 51.678 62.0199 51.878 62.0199C52.0647 62.0199 52.2447 62.0532 52.418 62.1199C52.5914 62.1732 52.7114 62.2532 52.778 62.3599C52.538 62.9999 52.418 63.6332 52.418 64.2599C52.418 64.8466 52.5047 65.2866 52.678 65.5799C52.6647 65.6599 52.5714 65.8132 52.398 66.0399C52.238 66.2666 52.058 66.4799 51.858 66.6799C51.498 66.4932 51.178 66.2399 50.898 65.9199C50.618 65.5866 50.4114 65.2266 50.278 64.8399C49.6514 65.2799 49.118 65.7132 48.678 66.1399C48.238 66.5532 47.858 67.0199 47.538 67.5399C47.2314 68.0466 46.9647 68.6332 46.738 69.2999C46.5247 69.9666 46.318 70.7599 46.118 71.6799C45.998 71.6666 45.8514 71.6199 45.678 71.5399C45.518 71.4732 45.3514 71.3866 45.178 71.2799C45.018 71.1732 44.8714 71.0599 44.738 70.9399C44.6047 70.8199 44.518 70.7066 44.478 70.5999Z" fill="white"/>
<path d="M43.2321 62.7201C43.1787 63.5467 43.0321 64.2601 42.7921 64.8601C42.5521 65.4467 42.2054 65.9667 41.7521 66.4201C41.3121 66.8601 40.7721 67.2601 40.1321 67.6201C39.4921 67.9801 38.7454 68.3267 37.8921 68.6601C37.8921 68.7401 37.8854 68.8267 37.8721 68.9201C37.8721 69.0001 37.8721 69.0867 37.8721 69.1801C37.8721 69.3534 37.8854 69.5334 37.9121 69.7201C37.9387 69.9067 37.9854 70.0801 38.0521 70.2401C38.1187 70.4001 38.2121 70.5334 38.3321 70.6401C38.4521 70.7334 38.6054 70.7801 38.7921 70.7801C39.1521 70.7801 39.5054 70.7001 39.8521 70.5401C40.1987 70.3801 40.5254 70.1867 40.8321 69.9601C41.1521 69.7201 41.4454 69.4667 41.7121 69.2001C41.9921 68.9201 42.2387 68.6667 42.4521 68.4401C42.5854 68.5601 42.6987 68.6734 42.7921 68.7801C42.1921 69.5801 41.5321 70.2467 40.8121 70.7801C40.1054 71.3001 39.4321 71.6334 38.7921 71.7801C37.8721 71.6734 37.1521 71.3401 36.6321 70.7801C36.1254 70.2067 35.8721 69.5201 35.8721 68.7201C35.8721 68.1734 35.9454 67.6201 36.0921 67.0601C36.2521 66.4867 36.4654 65.9401 36.7321 65.4201C37.0121 64.8867 37.3321 64.3867 37.6921 63.9201C38.0654 63.4534 38.4587 63.0467 38.8721 62.7001C39.2987 62.3534 39.7321 62.0801 40.1721 61.8801C40.6254 61.6801 41.0721 61.5801 41.5121 61.5801C42.1254 61.6601 42.6987 62.0401 43.2321 62.7201ZM41.8521 63.3801C41.4921 63.4334 41.1187 63.5801 40.7321 63.8201C40.3454 64.0601 39.9787 64.3801 39.6321 64.7801C39.2987 65.1801 38.9921 65.6467 38.7121 66.1801C38.4321 66.7134 38.2121 67.2867 38.0521 67.9001C39.1187 67.3667 40.0054 66.7134 40.7121 65.9401C41.4187 65.1534 41.7987 64.3001 41.8521 63.3801Z" fill="white"/>
<path d="M24.9199 70.6599C24.9199 70.1932 24.9666 69.6466 25.0599 69.0199C25.1533 68.3799 25.2866 67.6999 25.4599 66.9799C25.6466 66.2599 25.8599 65.5066 26.0999 64.7199C26.3533 63.9332 26.6333 63.1466 26.9399 62.3599C27.2066 61.6532 27.5133 60.9399 27.8599 60.2199C28.2199 59.4999 28.6066 58.7932 29.0199 58.0999C29.4333 57.4066 29.8599 56.7466 30.2999 56.1199C30.7533 55.4932 31.2066 54.9199 31.6599 54.3999C31.8733 54.3999 32.0999 54.4266 32.3399 54.4799C32.5933 54.5332 32.8333 54.6066 33.0599 54.6999C33.2999 54.7799 33.5133 54.8799 33.6999 54.9999C33.8999 55.1199 34.0599 55.2399 34.1799 55.3599C33.1799 56.3866 32.2799 57.4266 31.4799 58.4799C30.6799 59.5199 30.0466 60.4999 29.5799 61.4199C29.3266 61.9266 29.0933 62.3999 28.8799 62.8399C28.6799 63.2799 28.4933 63.7199 28.3199 64.1599C28.1466 64.5866 27.9866 65.0199 27.8399 65.4599C27.7066 65.8866 27.5799 66.3399 27.4599 66.8199C30.0199 63.5532 31.9199 61.9199 33.1599 61.9199C33.5066 61.9199 33.8799 62.0332 34.2799 62.2599C34.6799 62.4866 35.0333 62.7932 35.3399 63.1799C34.9266 63.6332 34.4999 64.1799 34.0599 64.8199C33.6199 65.4599 33.2133 66.1066 32.8399 66.7599C32.4799 67.3999 32.1799 67.9999 31.9399 68.5599C31.7133 69.1066 31.5999 69.5132 31.5999 69.7799C31.5999 69.9132 31.6199 70.0066 31.6599 70.0599C31.6999 70.0999 31.7866 70.1199 31.9199 70.1199C32.1199 70.1199 32.2799 70.0932 32.3999 70.0399C32.5199 69.9866 32.5933 69.9599 32.6199 69.9599C32.6866 70.0666 32.7266 70.1399 32.7399 70.1799C32.7533 70.2199 32.7599 70.2532 32.7599 70.2799C32.7599 70.3332 32.6799 70.4132 32.5199 70.5199C32.3599 70.6132 32.1666 70.7132 31.9399 70.8199C31.7266 70.9132 31.5133 70.9999 31.2999 71.0799C31.0866 71.1599 30.9266 71.1999 30.8199 71.1999C30.6866 71.1999 30.5533 71.1599 30.4199 71.0799C30.2866 71.0132 30.1666 70.9199 30.0599 70.7999C29.9666 70.6799 29.8866 70.5466 29.8199 70.3999C29.7666 70.2532 29.7399 70.0999 29.7399 69.9399C29.7399 69.7399 29.7933 69.4466 29.8999 69.0599C30.0199 68.6599 30.1799 68.1999 30.3799 67.6799C30.5799 67.1466 30.8199 66.5666 31.0999 65.9399C31.3799 65.3132 31.6799 64.6732 31.9999 64.0199C31.9999 63.9666 31.9733 63.9399 31.9199 63.9399C31.8799 63.9399 31.7733 63.9932 31.5999 64.0999C31.4399 64.2066 31.2866 64.3132 31.1399 64.4199C30.6599 64.7799 30.1733 65.2266 29.6799 65.7599C29.1999 66.2799 28.7266 66.8532 28.2599 67.4799C27.8066 68.1066 27.3733 68.7732 26.9599 69.4799C26.5599 70.1732 26.2133 70.8732 25.9199 71.5799C25.8799 71.6732 25.8199 71.7599 25.7399 71.8399C25.6599 71.9199 25.5933 71.9599 25.5399 71.9599C25.4999 71.9599 25.4399 71.9132 25.3599 71.8199C25.2933 71.7266 25.2266 71.6066 25.1599 71.4599C25.1066 71.3266 25.0533 71.1866 24.9999 71.0399C24.9466 70.8932 24.9199 70.7666 24.9199 70.6599Z" fill="white"/>
<path d="M58.0039 49.1199C58.0039 48.6399 58.1239 47.9732 58.3639 47.1199C58.6172 46.2665 58.9439 45.3332 59.3439 44.3199C59.7439 43.3065 60.1972 42.2599 60.7039 41.1799C61.2106 40.0999 61.7172 39.0932 62.2239 38.1599C62.7439 37.2265 63.2372 36.4199 63.7039 35.7399C64.1839 35.0599 64.5906 34.5999 64.9239 34.3599C65.1106 34.3732 65.3106 34.4532 65.5239 34.5999C65.7506 34.7465 65.9572 34.9265 66.1439 35.1399C66.3306 35.3399 66.4839 35.5532 66.6039 35.7799C66.7372 36.0065 66.8039 36.2132 66.8039 36.3999C66.2039 36.8799 65.5906 37.4999 64.9639 38.2599C64.3506 39.0065 63.7639 39.8332 63.2039 40.7399C62.6439 41.6332 62.1239 42.5865 61.6439 43.5999C61.1772 44.5999 60.7839 45.5865 60.4639 46.5599C60.8906 45.8265 61.3372 45.1599 61.8039 44.5599C62.2706 43.9599 62.7372 43.4465 63.2039 43.0199C63.6706 42.5932 64.1239 42.2665 64.5639 42.0399C65.0172 41.7999 65.4439 41.6732 65.8439 41.6599C66.4306 42.0865 66.7239 42.6532 66.7239 43.3599C66.7239 43.7865 66.6372 44.2199 66.4639 44.6599C66.2906 45.0865 66.0572 45.4865 65.7639 45.8599C65.4839 46.2199 65.1572 46.5332 64.7839 46.7999C64.4239 47.0532 64.0439 47.2199 63.6439 47.2999C63.7772 47.7665 63.9439 48.2399 64.1439 48.7199C64.3572 49.1999 64.6039 49.6665 64.8839 50.1199C65.1772 50.5732 65.5039 50.9932 65.8639 51.3799C66.2372 51.7665 66.6572 52.0932 67.1239 52.3599C67.0572 52.4932 66.9572 52.6265 66.8239 52.7599C66.6906 52.8932 66.5306 53.0065 66.3439 53.0999C66.1572 53.2065 65.9506 53.2865 65.7239 53.3399C65.5106 53.4065 65.2972 53.4399 65.0839 53.4399C64.7239 53.4399 64.3839 53.2599 64.0639 52.8999C63.7572 52.5399 63.4772 52.0199 63.2239 51.3399C63.0239 50.7932 62.8306 50.1399 62.6439 49.3799C62.4572 48.6199 62.2906 47.8265 62.1439 46.9999C62.3306 46.8799 62.5639 46.7065 62.8439 46.4799C63.1239 46.2399 63.4172 45.9665 63.7239 45.6599C64.8972 44.5265 65.4839 43.5465 65.4839 42.7199C65.4839 42.6132 65.4106 42.5599 65.2639 42.5599C64.9972 42.5732 64.6839 42.6999 64.3239 42.9399C63.9639 43.1799 63.5772 43.5132 63.1639 43.9399C62.7639 44.3665 62.3506 44.8665 61.9239 45.4399C61.5106 46.0132 61.1106 46.6332 60.7239 47.2999C60.5639 47.5665 60.4172 47.8732 60.2839 48.2199C60.1506 48.5665 60.0306 48.9265 59.9239 49.2999C59.8306 49.6599 59.7572 50.0199 59.7039 50.3799C59.6506 50.7399 59.6239 51.0732 59.6239 51.3799C59.6239 51.5665 59.6439 51.7199 59.6839 51.8399C59.2706 51.7999 59.0172 51.6932 58.9239 51.5199C58.8172 51.3599 58.7239 51.2265 58.6439 51.1199C58.5772 51.0265 58.5039 50.9465 58.4239 50.8799C58.3039 50.7865 58.2039 50.5865 58.1239 50.2799C58.0439 49.9732 58.0039 49.5865 58.0039 49.1199Z" fill="white"/>
<path d="M48.8857 47.48C48.8857 46.72 49.0391 45.9867 49.3457 45.28C49.6657 44.56 50.0791 43.9267 50.5857 43.38C51.1057 42.82 51.6924 42.3734 52.3457 42.04C53.0124 41.6934 53.6991 41.52 54.4057 41.52C55.0991 41.52 55.6324 41.6934 56.0057 42.04C56.3791 42.3867 56.5657 42.88 56.5657 43.52C56.5657 43.8267 56.5191 44.1267 56.4257 44.42C56.3457 44.7 56.2324 44.9534 56.0857 45.18C55.9524 45.4067 55.7924 45.5934 55.6057 45.74C55.4191 45.8734 55.2324 45.94 55.0457 45.94C54.8857 45.94 54.7191 45.8934 54.5457 45.8C54.3857 45.6934 54.2524 45.56 54.1457 45.4C55.0391 44.5867 55.4857 43.8467 55.4857 43.18C55.4857 42.7934 55.3324 42.6 55.0257 42.6C54.7591 42.6 54.4257 42.7267 54.0257 42.98C53.6257 43.2334 53.2391 43.5667 52.8657 43.98C52.2924 44.62 51.8524 45.3334 51.5457 46.12C51.2524 46.8934 51.1057 47.7067 51.1057 48.56C51.1057 49.64 51.3457 50.2867 51.8257 50.5C52.0257 50.4734 52.2591 50.4134 52.5257 50.32C52.7924 50.2267 53.0791 50.1067 53.3857 49.96C53.6924 49.8 54.0057 49.62 54.3257 49.42C54.6591 49.22 54.9791 49.0067 55.2857 48.78C55.3391 48.82 55.3857 48.88 55.4257 48.96C55.4657 49.04 55.4857 49.1134 55.4857 49.18C55.2591 49.46 54.9991 49.7334 54.7057 50C54.4124 50.2667 54.1057 50.5134 53.7857 50.74C53.4657 50.9534 53.1524 51.1334 52.8457 51.28C52.5524 51.44 52.2924 51.54 52.0657 51.58C51.6257 51.54 51.2124 51.4 50.8257 51.16C50.4391 50.9334 50.0991 50.6334 49.8057 50.26C49.5257 49.8867 49.2991 49.46 49.1257 48.98C48.9657 48.5 48.8857 48 48.8857 47.48Z" fill="white"/>
<path d="M43.2593 49.6598C43.2593 49.5398 43.2659 49.3932 43.2793 49.2198C43.3059 49.0332 43.3459 48.7932 43.3993 48.4998C43.4526 48.1932 43.5193 47.8265 43.5993 47.3998C43.6926 46.9732 43.8059 46.4598 43.9393 45.8598C43.9659 45.7265 44.0259 45.5132 44.1193 45.2198C44.2126 44.9265 44.3326 44.6198 44.4793 44.2998C44.6393 43.9665 44.8259 43.6465 45.0393 43.3398C45.2659 43.0332 45.5326 42.8065 45.8393 42.6598C46.0659 42.7132 46.3659 42.8532 46.7393 43.0798C47.1126 43.2932 47.4326 43.5932 47.6993 43.9798C47.3926 44.3265 47.1326 44.6732 46.9193 45.0198C46.7193 45.3665 46.5326 45.7265 46.3593 46.0998C46.1993 46.4732 46.0459 46.8598 45.8993 47.2598C45.7659 47.6598 45.6126 48.0798 45.4393 48.5198C45.2926 48.8932 45.1593 49.2798 45.0393 49.6798C44.9193 50.0665 44.8526 50.4065 44.8393 50.6998C44.8393 50.9398 44.8326 51.1065 44.8193 51.1998C44.8193 51.3065 44.7859 51.3598 44.7193 51.3598C44.6659 51.3598 44.5593 51.3265 44.3993 51.2598C44.2393 51.1932 44.0726 51.0932 43.8993 50.9598C43.7393 50.8132 43.5926 50.6332 43.4593 50.4198C43.3259 50.2065 43.2593 49.9532 43.2593 49.6598ZM47.0793 40.9798C47.0793 40.8998 47.0993 40.7798 47.1393 40.6198C47.0726 40.5532 47.0126 40.4532 46.9593 40.3198C46.9193 40.1865 46.8993 40.0665 46.8993 39.9598C46.8993 39.8398 46.9126 39.6798 46.9393 39.4798C46.9793 39.2665 47.0259 39.0398 47.0793 38.7998C47.1326 38.5598 47.1993 38.3132 47.2793 38.0598C47.3593 37.7932 47.4393 37.5532 47.5193 37.3398C47.6793 37.3398 47.8726 37.3865 48.0993 37.4798C48.3393 37.5598 48.5793 37.6732 48.8193 37.8198C49.0593 37.9532 49.2793 38.1065 49.4793 38.2798C49.6793 38.4398 49.8326 38.5932 49.9393 38.7398C49.7926 38.8865 49.5993 39.0932 49.3593 39.3598C49.1193 39.6132 48.8859 39.8865 48.6593 40.1798C48.4326 40.4598 48.2259 40.7265 48.0393 40.9798C47.8526 41.2332 47.7326 41.4132 47.6793 41.5198C47.5193 41.4932 47.3793 41.4265 47.2593 41.3198C47.1393 41.1998 47.0793 41.0865 47.0793 40.9798Z" fill="white"/>
<path d="M37.6924 49.7199C37.6924 49.1332 37.8324 48.3132 38.1124 47.2599C38.3924 46.1932 38.7857 44.9532 39.2924 43.5399C40.119 41.2866 40.8924 39.4132 41.6124 37.9199C42.3457 36.4132 43.059 35.2399 43.7524 34.3999C43.9124 34.4266 44.1057 34.4932 44.3324 34.5999C44.5724 34.7066 44.8057 34.8266 45.0324 34.9599C45.2591 35.0799 45.459 35.2066 45.6324 35.3399C45.819 35.4732 45.939 35.5799 45.9924 35.6599C44.9524 36.8866 44.0391 38.2066 43.2524 39.6199C42.4657 41.0332 41.7457 42.6532 41.0924 44.4799C40.5324 46.0532 40.1057 47.4732 39.8124 48.7399C39.519 49.9932 39.3724 51.0399 39.3724 51.8799C39.3724 52.1066 39.3724 52.2466 39.3724 52.2999C39.3724 52.3532 39.379 52.4066 39.3924 52.4599C39.2057 52.4332 39.0457 52.3866 38.9124 52.3199C38.779 52.2532 38.6924 52.1732 38.6524 52.0799C38.6257 52.0132 38.5524 51.9132 38.4324 51.7799C38.3124 51.6599 38.2057 51.5666 38.1124 51.4999C37.9924 51.4199 37.8924 51.2132 37.8124 50.8799C37.7324 50.5332 37.6924 50.1466 37.6924 49.7199Z" fill="white"/>
<path d="M25.8398 47.0797C25.8398 46.1464 25.9465 45.2331 26.1598 44.3397C26.3865 43.4331 26.6998 42.5797 27.0998 41.7797C27.4998 40.9664 27.9732 40.2264 28.5198 39.5597C29.0798 38.8797 29.6865 38.2931 30.3398 37.7997C31.0065 37.3064 31.7132 36.9264 32.4598 36.6597C33.2065 36.3797 33.9732 36.2397 34.7598 36.2397C35.6798 36.2397 36.3932 36.4331 36.8998 36.8197C37.4198 37.2064 37.6798 37.7464 37.6798 38.4397C37.6798 38.7064 37.6398 38.9797 37.5598 39.2597C37.4932 39.5397 37.3865 39.8197 37.2398 40.0997C37.1065 40.3664 36.9465 40.6264 36.7598 40.8797C36.5732 41.1331 36.3665 41.3531 36.1398 41.5397C35.7932 41.4864 35.4932 41.3331 35.2398 41.0797C34.9865 40.8131 34.8265 40.5064 34.7598 40.1597C35.2265 39.7731 35.5932 39.3731 35.8598 38.9597C36.1398 38.5331 36.2798 38.1464 36.2798 37.7997C36.2798 37.2131 35.9132 36.9197 35.1798 36.9197C34.8732 36.9197 34.5532 36.9864 34.2198 37.1197C33.8998 37.2397 33.5732 37.4131 33.2398 37.6397C32.9065 37.8664 32.5798 38.1397 32.2598 38.4597C31.9532 38.7797 31.6665 39.1331 31.3998 39.5197C29.5465 42.1864 28.6198 44.9131 28.6198 47.6997C28.6198 48.6864 28.7732 49.4797 29.0798 50.0797C29.3865 50.6797 29.7932 51.0331 30.2998 51.1397C30.8732 51.0064 31.5998 50.6397 32.4798 50.0397C33.3598 49.4397 34.3198 48.6597 35.3598 47.6997C35.4932 47.8331 35.5732 47.9731 35.5998 48.1197C35.2132 48.6264 34.8132 49.1131 34.3998 49.5797C33.9865 50.0464 33.5732 50.4731 33.1598 50.8597C32.7598 51.2464 32.3598 51.5864 31.9598 51.8797C31.5732 52.1731 31.2132 52.3997 30.8798 52.5597C29.2265 52.5331 27.9732 52.0597 27.1198 51.1397C26.2665 50.2197 25.8398 48.8664 25.8398 47.0797Z" fill="white"/>
<path d="M46.2904 28.6373L46.3883 29.3809L47.8755 29.1851L47.7776 28.4415L46.2904 28.6373ZM0.893304 4.56886C0.483303 4.62778 0.198701 5.00792 0.257628 5.41792C0.316555 5.82792 0.696696 6.11253 1.1067 6.0536L0.893304 4.56886ZM47.7776 28.4415C47.3793 25.4156 45.164 22.2875 41.9973 19.3757C38.8064 16.4418 34.5434 13.6299 29.8413 11.2497C20.4666 6.50439 9.15557 3.38137 0.893304 4.56886L1.1067 6.0536C8.92548 4.92985 19.905 7.90132 29.1638 12.5881C33.7784 14.9239 37.9179 17.6625 40.982 20.4799C44.0702 23.3195 45.9622 26.1436 46.2904 28.6373L47.7776 28.4415Z" fill="white"/>
<path d="M1.08105 5.24515C3.17644 4.86417 8.75428 2.21785 10.5811 1" stroke="white" stroke-width="1.5" stroke-linecap="round"/>
<path d="M1.08105 5.35495C3.17644 5.73593 8.75428 8.38225 10.5811 9.6001" stroke="white" stroke-width="1.5" stroke-linecap="round"/>
</svg>
