<svg width="68" height="74" viewBox="0 0 68 74" fill="none" xmlns="http://www.w3.org/2000/svg">
<path d="M2.83902 47.08C2.83902 46.1467 2.94569 45.2333 3.15902 44.34C3.38569 43.4333 3.69902 42.58 4.09902 41.78C4.49902 40.9667 4.97236 40.2267 5.51902 39.56C6.07902 38.88 6.68569 38.2933 7.33902 37.8C8.00569 37.3067 8.71236 36.9267 9.45902 36.66C10.2057 36.38 10.9724 36.24 11.759 36.24C12.679 36.24 13.3924 36.4333 13.899 36.82C14.419 37.2067 14.679 37.7467 14.679 38.44C14.679 38.7067 14.639 38.98 14.559 39.26C14.4924 39.54 14.3857 39.82 14.239 40.1C14.1057 40.3667 13.9457 40.6267 13.759 40.88C13.5724 41.1333 13.3657 41.3533 13.139 41.54C12.7924 41.4867 12.4924 41.3333 12.239 41.08C11.9857 40.8133 11.8257 40.5067 11.759 40.16C12.2257 39.7733 12.5924 39.3733 12.859 38.96C13.139 38.5333 13.279 38.1467 13.279 37.8C13.279 37.2133 12.9124 36.92 12.179 36.92C11.8724 36.92 11.5524 36.9867 11.219 37.12C10.899 37.24 10.5724 37.4133 10.239 37.64C9.90569 37.8667 9.57902 38.14 9.25902 38.46C8.95236 38.78 8.66569 39.1333 8.39902 39.52C6.54569 42.1867 5.61902 44.9133 5.61902 47.7C5.61902 48.6867 5.77236 49.48 6.07902 50.08C6.38569 50.68 6.79236 51.0333 7.29902 51.14C7.87236 51.0067 8.59902 50.64 9.47902 50.04C10.359 49.44 11.319 48.66 12.359 47.7C12.4924 47.8333 12.5724 47.9733 12.599 48.12C12.2124 48.6267 11.8124 49.1133 11.399 49.58C10.9857 50.0467 10.5724 50.4733 10.159 50.86C9.75902 51.2467 9.35902 51.5867 8.95902 51.88C8.57236 52.1733 8.21236 52.4 7.87902 52.56C6.22569 52.5333 4.97236 52.06 4.11902 51.14C3.26569 50.22 2.83902 48.8667 2.83902 47.08ZM14.6917 49.72C14.6917 49.1333 14.8317 48.3133 15.1117 47.26C15.3917 46.1933 15.785 44.9533 16.2917 43.54C17.1183 41.2867 17.8917 39.4133 18.6117 37.92C19.345 36.4133 20.0583 35.24 20.7517 34.4C20.9117 34.4267 21.105 34.4933 21.3317 34.6C21.5717 34.7067 21.805 34.8267 22.0317 34.96C22.2583 35.08 22.4583 35.2067 22.6317 35.34C22.8183 35.4733 22.9383 35.58 22.9917 35.66C21.9517 36.8867 21.0383 38.2067 20.2517 39.62C19.465 41.0333 18.745 42.6533 18.0917 44.48C17.5317 46.0533 17.105 47.4733 16.8117 48.74C16.5183 49.9933 16.3717 51.04 16.3717 51.88C16.3717 52.1067 16.3717 52.2467 16.3717 52.3C16.3717 52.3533 16.3783 52.4067 16.3917 52.46C16.205 52.4333 16.045 52.3867 15.9117 52.32C15.7783 52.2533 15.6917 52.1733 15.6517 52.08C15.625 52.0133 15.5517 51.9133 15.4317 51.78C15.3117 51.66 15.205 51.5667 15.1117 51.5C14.9917 51.42 14.8917 51.2133 14.8117 50.88C14.7317 50.5333 14.6917 50.1467 14.6917 49.72ZM20.2582 49.66C20.2582 49.54 20.2649 49.3933 20.2782 49.22C20.3049 49.0333 20.3449 48.7933 20.3982 48.5C20.4516 48.1933 20.5182 47.8267 20.5982 47.4C20.6916 46.9733 20.8049 46.46 20.9382 45.86C20.9649 45.7267 21.0249 45.5133 21.1182 45.22C21.2116 44.9267 21.3316 44.62 21.4782 44.3C21.6382 43.9667 21.8249 43.6467 22.0382 43.34C22.2649 43.0333 22.5316 42.8067 22.8382 42.66C23.0649 42.7133 23.3649 42.8533 23.7382 43.08C24.1116 43.2933 24.4316 43.5933 24.6982 43.98C24.3916 44.3267 24.1316 44.6733 23.9182 45.02C23.7182 45.3667 23.5316 45.7267 23.3582 46.1C23.1982 46.4733 23.0449 46.86 22.8982 47.26C22.7649 47.66 22.6116 48.08 22.4382 48.52C22.2916 48.8933 22.1582 49.28 22.0382 49.68C21.9182 50.0667 21.8516 50.4067 21.8382 50.7C21.8382 50.94 21.8316 51.1067 21.8182 51.2C21.8182 51.3067 21.7849 51.36 21.7182 51.36C21.6649 51.36 21.5582 51.3267 21.3982 51.26C21.2382 51.1933 21.0716 51.0933 20.8982 50.96C20.7382 50.8133 20.5916 50.6333 20.4582 50.42C20.3249 50.2067 20.2582 49.9533 20.2582 49.66ZM24.0782 40.98C24.0782 40.9 24.0982 40.78 24.1382 40.62C24.0716 40.5533 24.0116 40.4533 23.9582 40.32C23.9182 40.1867 23.8982 40.0667 23.8982 39.96C23.8982 39.84 23.9116 39.68 23.9382 39.48C23.9782 39.2667 24.0249 39.04 24.0782 38.8C24.1316 38.56 24.1982 38.3133 24.2782 38.06C24.3582 37.7933 24.4382 37.5533 24.5182 37.34C24.6782 37.34 24.8716 37.3867 25.0982 37.48C25.3382 37.56 25.5782 37.6733 25.8182 37.82C26.0582 37.9533 26.2782 38.1067 26.4782 38.28C26.6782 38.44 26.8316 38.5933 26.9382 38.74C26.7916 38.8867 26.5982 39.0933 26.3582 39.36C26.1182 39.6133 25.8849 39.8867 25.6582 40.18C25.4316 40.46 25.2249 40.7267 25.0382 40.98C24.8516 41.2333 24.7316 41.4133 24.6782 41.52C24.5182 41.4933 24.3782 41.4267 24.2582 41.32C24.1382 41.2 24.0782 41.0867 24.0782 40.98ZM25.8848 47.48C25.8848 46.72 26.0381 45.9867 26.3448 45.28C26.6648 44.56 27.0781 43.9267 27.5848 43.38C28.1048 42.82 28.6915 42.3733 29.3448 42.04C30.0115 41.6933 30.6981 41.52 31.4048 41.52C32.0981 41.52 32.6315 41.6933 33.0048 42.04C33.3781 42.3867 33.5648 42.88 33.5648 43.52C33.5648 43.8267 33.5181 44.1267 33.4248 44.42C33.3448 44.7 33.2315 44.9533 33.0848 45.18C32.9515 45.4067 32.7915 45.5933 32.6048 45.74C32.4181 45.8733 32.2315 45.94 32.0448 45.94C31.8848 45.94 31.7181 45.8933 31.5448 45.8C31.3848 45.6933 31.2515 45.56 31.1448 45.4C32.0381 44.5867 32.4848 43.8467 32.4848 43.18C32.4848 42.7933 32.3315 42.6 32.0248 42.6C31.7581 42.6 31.4248 42.7267 31.0248 42.98C30.6248 43.2333 30.2381 43.5667 29.8648 43.98C29.2915 44.62 28.8515 45.3333 28.5448 46.12C28.2515 46.8933 28.1048 47.7067 28.1048 48.56C28.1048 49.64 28.3448 50.2867 28.8248 50.5C29.0248 50.4733 29.2581 50.4133 29.5248 50.32C29.7915 50.2267 30.0781 50.1067 30.3848 49.96C30.6915 49.8 31.0048 49.62 31.3248 49.42C31.6581 49.22 31.9781 49.0067 32.2848 48.78C32.3381 48.82 32.3848 48.88 32.4248 48.96C32.4648 49.04 32.4848 49.1133 32.4848 49.18C32.2581 49.46 31.9981 49.7333 31.7048 50C31.4115 50.2667 31.1048 50.5133 30.7848 50.74C30.4648 50.9533 30.1515 51.1333 29.8448 51.28C29.5515 51.44 29.2915 51.54 29.0648 51.58C28.6248 51.54 28.2115 51.4 27.8248 51.16C27.4381 50.9333 27.0981 50.6333 26.8048 50.26C26.5248 49.8867 26.2981 49.46 26.1248 48.98C25.9648 48.5 25.8848 48 25.8848 47.48ZM35.0032 49.12C35.0032 48.64 35.1232 47.9733 35.3632 47.12C35.6166 46.2667 35.9432 45.3333 36.3432 44.32C36.7432 43.3067 37.1966 42.26 37.7032 41.18C38.2099 40.1 38.7166 39.0933 39.2232 38.16C39.7432 37.2267 40.2366 36.42 40.7032 35.74C41.1832 35.06 41.5899 34.6 41.9232 34.36C42.1099 34.3733 42.3099 34.4533 42.5232 34.6C42.7499 34.7467 42.9566 34.9267 43.1432 35.14C43.3299 35.34 43.4832 35.5533 43.6032 35.78C43.7366 36.0067 43.8032 36.2133 43.8032 36.4C43.2032 36.88 42.5899 37.5 41.9632 38.26C41.3499 39.0067 40.7632 39.8333 40.2032 40.74C39.6432 41.6333 39.1232 42.5867 38.6432 43.6C38.1766 44.6 37.7832 45.5867 37.4632 46.56C37.8899 45.8267 38.3366 45.16 38.8032 44.56C39.2699 43.96 39.7366 43.4467 40.2032 43.02C40.6699 42.5933 41.1232 42.2667 41.5632 42.04C42.0166 41.8 42.4432 41.6733 42.8432 41.66C43.4299 42.0867 43.7232 42.6533 43.7232 43.36C43.7232 43.7867 43.6366 44.22 43.4632 44.66C43.2899 45.0867 43.0566 45.4867 42.7632 45.86C42.4832 46.22 42.1566 46.5333 41.7832 46.8C41.4232 47.0533 41.0432 47.22 40.6432 47.3C40.7766 47.7667 40.9432 48.24 41.1432 48.72C41.3566 49.2 41.6032 49.6667 41.8832 50.12C42.1766 50.5733 42.5032 50.9933 42.8632 51.38C43.2366 51.7667 43.6566 52.0933 44.1232 52.36C44.0566 52.4933 43.9566 52.6267 43.8232 52.76C43.6899 52.8933 43.5299 53.0067 43.3432 53.1C43.1566 53.2067 42.9499 53.2867 42.7232 53.34C42.5099 53.4067 42.2966 53.44 42.0832 53.44C41.7232 53.44 41.3832 53.26 41.0632 52.9C40.7566 52.54 40.4766 52.02 40.2232 51.34C40.0232 50.7933 39.8299 50.14 39.6432 49.38C39.4566 48.62 39.2899 47.8267 39.1432 47C39.3299 46.88 39.5632 46.7067 39.8432 46.48C40.1232 46.24 40.4166 45.9667 40.7232 45.66C41.8966 44.5267 42.4832 43.5467 42.4832 42.72C42.4832 42.6133 42.4099 42.56 42.2632 42.56C41.9966 42.5733 41.6832 42.7 41.3232 42.94C40.9632 43.18 40.5766 43.5133 40.1632 43.94C39.7632 44.3667 39.3499 44.8667 38.9232 45.44C38.5099 46.0133 38.1099 46.6333 37.7232 47.3C37.5632 47.5667 37.4166 47.8733 37.2832 48.22C37.1499 48.5667 37.0299 48.9267 36.9232 49.3C36.8299 49.66 36.7566 50.02 36.7032 50.38C36.6499 50.74 36.6232 51.0733 36.6232 51.38C36.6232 51.5667 36.6432 51.72 36.6832 51.84C36.2699 51.8 36.0166 51.6933 35.9232 51.52C35.8166 51.36 35.7232 51.2267 35.6432 51.12C35.5766 51.0267 35.5032 50.9467 35.4232 50.88C35.3032 50.7867 35.2032 50.5867 35.1232 50.28C35.0432 49.9733 35.0032 49.5867 35.0032 49.12ZM1.91902 70.66C1.91902 70.1933 1.96569 69.6467 2.05902 69.02C2.15236 68.38 2.28569 67.7 2.45902 66.98C2.64569 66.26 2.85902 65.5067 3.09902 64.72C3.35236 63.9333 3.63236 63.1467 3.93902 62.36C4.20569 61.6533 4.51236 60.94 4.85902 60.22C5.21902 59.5 5.60569 58.7933 6.01902 58.1C6.43236 57.4067 6.85902 56.7467 7.29902 56.12C7.75236 55.4933 8.20569 54.92 8.65902 54.4C8.87236 54.4 9.09902 54.4267 9.33902 54.48C9.59236 54.5333 9.83236 54.6067 10.059 54.7C10.299 54.78 10.5124 54.88 10.699 55C10.899 55.12 11.059 55.24 11.179 55.36C10.179 56.3867 9.27902 57.4267 8.47902 58.48C7.67902 59.52 7.04569 60.5 6.57902 61.42C6.32569 61.9267 6.09236 62.4 5.87902 62.84C5.67902 63.28 5.49236 63.72 5.31902 64.16C5.14569 64.5867 4.98569 65.02 4.83902 65.46C4.70569 65.8867 4.57902 66.34 4.45902 66.82C7.01902 63.5533 8.91902 61.92 10.159 61.92C10.5057 61.92 10.879 62.0333 11.279 62.26C11.679 62.4867 12.0324 62.7933 12.339 63.18C11.9257 63.6333 11.499 64.18 11.059 64.82C10.619 65.46 10.2124 66.1067 9.83902 66.76C9.47902 67.4 9.17902 68 8.93902 68.56C8.71236 69.1067 8.59902 69.5133 8.59902 69.78C8.59902 69.9133 8.61902 70.0067 8.65902 70.06C8.69902 70.1 8.78569 70.12 8.91902 70.12C9.11902 70.12 9.27902 70.0933 9.39902 70.04C9.51902 69.9867 9.59236 69.96 9.61902 69.96C9.68569 70.0667 9.72569 70.14 9.73902 70.18C9.75236 70.22 9.75902 70.2533 9.75902 70.28C9.75902 70.3333 9.67902 70.4133 9.51902 70.52C9.35902 70.6133 9.16569 70.7133 8.93902 70.82C8.72569 70.9133 8.51236 71 8.29902 71.08C8.08569 71.16 7.92569 71.2 7.81902 71.2C7.68569 71.2 7.55236 71.16 7.41902 71.08C7.28569 71.0133 7.16569 70.92 7.05902 70.8C6.96569 70.68 6.88569 70.5467 6.81902 70.4C6.76569 70.2533 6.73902 70.1 6.73902 69.94C6.73902 69.74 6.79236 69.4467 6.89902 69.06C7.01902 68.66 7.17902 68.2 7.37902 67.68C7.57902 67.1467 7.81902 66.5667 8.09902 65.94C8.37902 65.3133 8.67902 64.6733 8.99902 64.02C8.99902 63.9667 8.97236 63.94 8.91902 63.94C8.87902 63.94 8.77236 63.9933 8.59902 64.1C8.43902 64.2067 8.28569 64.3133 8.13902 64.42C7.65902 64.78 7.17236 65.2267 6.67902 65.76C6.19902 66.28 5.72569 66.8533 5.25902 67.48C4.80569 68.1067 4.37236 68.7733 3.95902 69.48C3.55902 70.1733 3.21236 70.8733 2.91902 71.58C2.87902 71.6733 2.81902 71.76 2.73902 71.84C2.65902 71.92 2.59236 71.96 2.53902 71.96C2.49902 71.96 2.43902 71.9133 2.35902 71.82C2.29236 71.7267 2.22569 71.6067 2.15902 71.46C2.10569 71.3267 2.05236 71.1867 1.99902 71.04C1.94569 70.8933 1.91902 70.7667 1.91902 70.66ZM20.2311 62.72C20.1777 63.5467 20.0311 64.26 19.7911 64.86C19.5511 65.4467 19.2044 65.9667 18.7511 66.42C18.3111 66.86 17.7711 67.26 17.1311 67.62C16.4911 67.98 15.7444 68.3267 14.8911 68.66C14.8911 68.74 14.8844 68.8267 14.8711 68.92C14.8711 69 14.8711 69.0867 14.8711 69.18C14.8711 69.3533 14.8844 69.5333 14.9111 69.72C14.9377 69.9067 14.9844 70.08 15.0511 70.24C15.1177 70.4 15.2111 70.5333 15.3311 70.64C15.4511 70.7333 15.6044 70.78 15.7911 70.78C16.1511 70.78 16.5044 70.7 16.8511 70.54C17.1977 70.38 17.5244 70.1867 17.8311 69.96C18.1511 69.72 18.4444 69.4667 18.7111 69.2C18.9911 68.92 19.2377 68.6667 19.4511 68.44C19.5844 68.56 19.6977 68.6733 19.7911 68.78C19.1911 69.58 18.5311 70.2467 17.8111 70.78C17.1044 71.3 16.4311 71.6333 15.7911 71.78C14.8711 71.6733 14.1511 71.34 13.6311 70.78C13.1244 70.2067 12.8711 69.52 12.8711 68.72C12.8711 68.1733 12.9444 67.62 13.0911 67.06C13.2511 66.4867 13.4644 65.94 13.7311 65.42C14.0111 64.8867 14.3311 64.3867 14.6911 63.92C15.0644 63.4533 15.4577 63.0467 15.8711 62.7C16.2977 62.3533 16.7311 62.08 17.1711 61.88C17.6244 61.68 18.0711 61.58 18.5111 61.58C19.1244 61.66 19.6977 62.04 20.2311 62.72ZM18.8511 63.38C18.4911 63.4333 18.1177 63.58 17.7311 63.82C17.3444 64.06 16.9777 64.38 16.6311 64.78C16.2977 65.18 15.9911 65.6467 15.7111 66.18C15.4311 66.7133 15.2111 67.2867 15.0511 67.9C16.1177 67.3667 17.0044 66.7133 17.7111 65.94C18.4177 65.1533 18.7977 64.3 18.8511 63.38ZM21.477 70.6C21.5437 70.2133 21.657 69.7067 21.817 69.08C21.9903 68.44 22.1903 67.7667 22.417 67.06C22.6437 66.34 22.8837 65.62 23.137 64.9C23.3903 64.18 23.637 63.5333 23.877 62.96C24.0503 62.5467 24.2037 62.2267 24.337 62C24.4703 61.76 24.617 61.56 24.777 61.4C24.9637 61.4267 25.157 61.4733 25.357 61.54C25.557 61.6067 25.7503 61.6867 25.937 61.78C26.1237 61.8733 26.2903 61.9733 26.437 62.08C26.5837 62.1733 26.697 62.2667 26.777 62.36C26.417 62.7867 26.097 63.2733 25.817 63.82C25.5503 64.3667 25.277 65.0667 24.997 65.92C25.717 65.28 26.3503 64.6667 26.897 64.08C27.457 63.4933 27.977 62.84 28.457 62.12C28.537 62.0533 28.677 62.02 28.877 62.02C29.0637 62.02 29.2437 62.0533 29.417 62.12C29.5903 62.1733 29.7103 62.2533 29.777 62.36C29.537 63 29.417 63.6333 29.417 64.26C29.417 64.8467 29.5037 65.2867 29.677 65.58C29.6637 65.66 29.5703 65.8133 29.397 66.04C29.237 66.2667 29.057 66.48 28.857 66.68C28.497 66.4933 28.177 66.24 27.897 65.92C27.617 65.5867 27.4103 65.2267 27.277 64.84C26.6503 65.28 26.117 65.7133 25.677 66.14C25.237 66.5533 24.857 67.02 24.537 67.54C24.2303 68.0467 23.9637 68.6333 23.737 69.3C23.5237 69.9667 23.317 70.76 23.117 71.68C22.997 71.6667 22.8503 71.62 22.677 71.54C22.517 71.4733 22.3503 71.3867 22.177 71.28C22.017 71.1733 21.8703 71.06 21.737 70.94C21.6037 70.82 21.517 70.7067 21.477 70.6ZM37.9834 62.72C37.9301 63.5467 37.7834 64.26 37.5434 64.86C37.3034 65.4467 36.9567 65.9667 36.5034 66.42C36.0634 66.86 35.5234 67.26 34.8834 67.62C34.2434 67.98 33.4967 68.3267 32.6434 68.66C32.6434 68.74 32.6367 68.8267 32.6234 68.92C32.6234 69 32.6234 69.0867 32.6234 69.18C32.6234 69.3533 32.6367 69.5333 32.6634 69.72C32.6901 69.9067 32.7367 70.08 32.8034 70.24C32.8701 70.4 32.9634 70.5333 33.0834 70.64C33.2034 70.7333 33.3567 70.78 33.5434 70.78C33.9034 70.78 34.2567 70.7 34.6034 70.54C34.9501 70.38 35.2767 70.1867 35.5834 69.96C35.9034 69.72 36.1967 69.4667 36.4634 69.2C36.7434 68.92 36.9901 68.6667 37.2034 68.44C37.3367 68.56 37.4501 68.6733 37.5434 68.78C36.9434 69.58 36.2834 70.2467 35.5634 70.78C34.8567 71.3 34.1834 71.6333 33.5434 71.78C32.6234 71.6733 31.9034 71.34 31.3834 70.78C30.8767 70.2067 30.6234 69.52 30.6234 68.72C30.6234 68.1733 30.6967 67.62 30.8434 67.06C31.0034 66.4867 31.2167 65.94 31.4834 65.42C31.7634 64.8867 32.0834 64.3867 32.4434 63.92C32.8167 63.4533 33.2101 63.0467 33.6234 62.7C34.0501 62.3533 34.4834 62.08 34.9234 61.88C35.3767 61.68 35.8234 61.58 36.2634 61.58C36.8767 61.66 37.4501 62.04 37.9834 62.72ZM36.6034 63.38C36.2434 63.4333 35.8701 63.58 35.4834 63.82C35.0967 64.06 34.7301 64.38 34.3834 64.78C34.0501 65.18 33.7434 65.6467 33.4634 66.18C33.1834 66.7133 32.9634 67.2867 32.8034 67.9C33.8701 67.3667 34.7567 66.7133 35.4634 65.94C36.1701 65.1533 36.5501 64.3 36.6034 63.38ZM40.6293 67.24C40.6293 66.88 40.7227 66.36 40.9093 65.68C41.1093 64.9867 41.3627 64.2267 41.6693 63.4C41.976 62.56 42.3227 61.7 42.7093 60.82C43.096 59.9267 43.4827 59.0933 43.8693 58.32C44.2693 57.5467 44.6493 56.88 45.0093 56.32C45.3693 55.7467 45.6827 55.3667 45.9493 55.18C46.1627 55.22 46.3893 55.32 46.6293 55.48C46.8827 55.6267 47.116 55.8 47.3293 56C47.5427 56.1867 47.7293 56.3867 47.8893 56.6C48.0493 56.8133 48.1427 57 48.1693 57.16C47.4893 57.72 46.816 58.42 46.1493 59.26C45.4827 60.0867 44.8627 61.0067 44.2893 62.02C43.7293 63.0333 43.236 64.12 42.8093 65.28C42.3827 66.4267 42.0627 67.6 41.8493 68.8C41.6893 68.76 41.5293 68.7133 41.3693 68.66C41.2227 68.5933 41.096 68.5067 40.9893 68.4C40.8827 68.2933 40.796 68.1467 40.7293 67.96C40.6627 67.7733 40.6293 67.5333 40.6293 67.24ZM40.1893 72.54C40.0293 72.54 39.876 72.5 39.7293 72.42C39.5827 72.3533 39.4493 72.2667 39.3293 72.16C39.2227 72.0667 39.136 71.96 39.0693 71.84C39.0027 71.7333 38.9693 71.6467 38.9693 71.58C38.9693 71.42 38.9893 71.2133 39.0293 70.96C39.0693 70.7067 39.1293 70.4667 39.2093 70.24C39.2893 70 39.3893 69.8 39.5093 69.64C39.6293 69.4667 39.7627 69.38 39.9093 69.38C40.2827 69.38 40.656 69.5133 41.0293 69.78C41.416 70.0333 41.7027 70.32 41.8893 70.64C41.7293 70.8133 41.5893 71.0067 41.4693 71.22C41.3493 71.4467 41.2293 71.6533 41.1093 71.84C40.9893 72.04 40.856 72.2067 40.7093 72.34C40.5627 72.4733 40.3893 72.54 40.1893 72.54Z" fill="black"/>
<path d="M21.7438 28.6373L21.6459 29.3809L20.1587 29.1851L20.2566 28.4415L21.7438 28.6373ZM67.1409 4.56886C67.5509 4.62778 67.8355 5.00792 67.7766 5.41792C67.7176 5.82792 67.3375 6.11253 66.9275 6.0536L67.1409 4.56886ZM21.0002 28.5394L20.2566 28.4415C20.6548 25.4156 22.8702 22.2875 26.0369 19.3757C29.2278 16.4418 33.4908 13.6299 38.1929 11.2497C47.5676 6.50439 58.8786 3.38137 67.1409 4.56886L67.0342 5.31123L66.9275 6.0536C59.1087 4.92985 48.1292 7.90132 38.8704 12.5881C34.2557 14.9239 30.1162 17.6625 27.0522 20.4799C23.964 23.3195 22.072 26.1436 21.7438 28.6373L21.0002 28.5394Z" fill="black"/>
<path d="M66.9531 5.24515C64.8577 4.86417 59.2799 2.21785 57.4531 1" stroke="black" stroke-width="1.5" stroke-linecap="round"/>
<path d="M66.9531 5.35495C64.8577 5.73593 59.2799 8.38225 57.4531 9.6001" stroke="black" stroke-width="1.5" stroke-linecap="round"/>
</svg>
