<svg width="72" height="74" viewBox="0 0 72 74" fill="none" xmlns="http://www.w3.org/2000/svg">
<path d="M25.84 47.08C25.84 46.1467 25.9467 45.2333 26.16 44.34C26.3867 43.4333 26.7 42.58 27.1 41.78C27.5 40.9667 27.9733 40.2267 28.52 39.56C29.08 38.88 29.6867 38.2933 30.34 37.8C31.0067 37.3067 31.7133 36.9267 32.46 36.66C33.2067 36.38 33.9733 36.24 34.76 36.24C35.68 36.24 36.3933 36.4333 36.9 36.82C37.42 37.2067 37.68 37.7467 37.68 38.44C37.68 38.7067 37.64 38.98 37.56 39.26C37.4933 39.54 37.3867 39.82 37.24 40.1C37.1067 40.3667 36.9467 40.6267 36.76 40.88C36.5733 41.1333 36.3667 41.3533 36.14 41.54C35.7933 41.4867 35.4933 41.3333 35.24 41.08C34.9867 40.8133 34.8267 40.5067 34.76 40.16C35.2267 39.7733 35.5933 39.3733 35.86 38.96C36.14 38.5333 36.28 38.1467 36.28 37.8C36.28 37.2133 35.9133 36.92 35.18 36.92C34.8733 36.92 34.5533 36.9867 34.22 37.12C33.9 37.24 33.5733 37.4133 33.24 37.64C32.9067 37.8667 32.58 38.14 32.26 38.46C31.9533 38.78 31.6667 39.1333 31.4 39.52C29.5467 42.1867 28.62 44.9133 28.62 47.7C28.62 48.6867 28.7733 49.48 29.08 50.08C29.3867 50.68 29.7933 51.0333 30.3 51.14C30.8733 51.0067 31.6 50.64 32.48 50.04C33.36 49.44 34.32 48.66 35.36 47.7C35.4933 47.8333 35.5733 47.9733 35.6 48.12C35.2133 48.6267 34.8133 49.1133 34.4 49.58C33.9867 50.0467 33.5733 50.4733 33.16 50.86C32.76 51.2467 32.36 51.5867 31.96 51.88C31.5733 52.1733 31.2133 52.4 30.88 52.56C29.2267 52.5333 27.9733 52.06 27.12 51.14C26.2667 50.22 25.84 48.8667 25.84 47.08ZM37.6927 49.72C37.6927 49.1333 37.8327 48.3133 38.1127 47.26C38.3927 46.1933 38.786 44.9533 39.2927 43.54C40.1193 41.2867 40.8927 39.4133 41.6127 37.92C42.346 36.4133 43.0593 35.24 43.7527 34.4C43.9127 34.4267 44.106 34.4933 44.3327 34.6C44.5727 34.7067 44.806 34.8267 45.0327 34.96C45.2593 35.08 45.4593 35.2067 45.6327 35.34C45.8193 35.4733 45.9393 35.58 45.9927 35.66C44.9527 36.8867 44.0393 38.2067 43.2527 39.62C42.466 41.0333 41.746 42.6533 41.0927 44.48C40.5327 46.0533 40.106 47.4733 39.8127 48.74C39.5193 49.9933 39.3727 51.04 39.3727 51.88C39.3727 52.1067 39.3727 52.2467 39.3727 52.3C39.3727 52.3533 39.3793 52.4067 39.3927 52.46C39.206 52.4333 39.046 52.3867 38.9127 52.32C38.7793 52.2533 38.6927 52.1733 38.6527 52.08C38.626 52.0133 38.5527 51.9133 38.4327 51.78C38.3127 51.66 38.206 51.5667 38.1127 51.5C37.9927 51.42 37.8927 51.2133 37.8127 50.88C37.7327 50.5333 37.6927 50.1467 37.6927 49.72ZM43.2592 49.66C43.2592 49.54 43.2659 49.3933 43.2792 49.22C43.3059 49.0333 43.3459 48.7933 43.3992 48.5C43.4526 48.1933 43.5192 47.8267 43.5992 47.4C43.6926 46.9733 43.8059 46.46 43.9392 45.86C43.9659 45.7267 44.0259 45.5133 44.1192 45.22C44.2126 44.9267 44.3326 44.62 44.4792 44.3C44.6392 43.9667 44.8259 43.6467 45.0392 43.34C45.2659 43.0333 45.5326 42.8067 45.8392 42.66C46.0659 42.7133 46.3659 42.8533 46.7392 43.08C47.1126 43.2933 47.4326 43.5933 47.6992 43.98C47.3926 44.3267 47.1326 44.6733 46.9192 45.02C46.7192 45.3667 46.5326 45.7267 46.3592 46.1C46.1992 46.4733 46.0459 46.86 45.8992 47.26C45.7659 47.66 45.6126 48.08 45.4392 48.52C45.2926 48.8933 45.1592 49.28 45.0392 49.68C44.9192 50.0667 44.8526 50.4067 44.8392 50.7C44.8392 50.94 44.8326 51.1067 44.8192 51.2C44.8192 51.3067 44.7859 51.36 44.7192 51.36C44.6659 51.36 44.5592 51.3267 44.3992 51.26C44.2392 51.1933 44.0726 51.0933 43.8992 50.96C43.7392 50.8133 43.5926 50.6333 43.4592 50.42C43.3259 50.2067 43.2592 49.9533 43.2592 49.66ZM47.0792 40.98C47.0792 40.9 47.0992 40.78 47.1392 40.62C47.0726 40.5533 47.0126 40.4533 46.9592 40.32C46.9192 40.1867 46.8992 40.0667 46.8992 39.96C46.8992 39.84 46.9126 39.68 46.9392 39.48C46.9792 39.2667 47.0259 39.04 47.0792 38.8C47.1326 38.56 47.1992 38.3133 47.2792 38.06C47.3592 37.7933 47.4392 37.5533 47.5192 37.34C47.6792 37.34 47.8726 37.3867 48.0992 37.48C48.3392 37.56 48.5792 37.6733 48.8192 37.82C49.0592 37.9533 49.2792 38.1067 49.4792 38.28C49.6792 38.44 49.8326 38.5933 49.9392 38.74C49.7926 38.8867 49.5992 39.0933 49.3592 39.36C49.1192 39.6133 48.8859 39.8867 48.6592 40.18C48.4326 40.46 48.2259 40.7267 48.0392 40.98C47.8526 41.2333 47.7326 41.4133 47.6792 41.52C47.5192 41.4933 47.3792 41.4267 47.2592 41.32C47.1392 41.2 47.0792 41.0867 47.0792 40.98ZM48.8858 47.48C48.8858 46.72 49.0391 45.9867 49.3458 45.28C49.6658 44.56 50.0791 43.9267 50.5858 43.38C51.1058 42.82 51.6924 42.3733 52.3458 42.04C53.0124 41.6933 53.6991 41.52 54.4058 41.52C55.0991 41.52 55.6324 41.6933 56.0058 42.04C56.3791 42.3867 56.5658 42.88 56.5658 43.52C56.5658 43.8267 56.5191 44.1267 56.4258 44.42C56.3458 44.7 56.2324 44.9533 56.0858 45.18C55.9524 45.4067 55.7924 45.5933 55.6058 45.74C55.4191 45.8733 55.2324 45.94 55.0458 45.94C54.8858 45.94 54.7191 45.8933 54.5458 45.8C54.3858 45.6933 54.2524 45.56 54.1458 45.4C55.0391 44.5867 55.4858 43.8467 55.4858 43.18C55.4858 42.7933 55.3324 42.6 55.0258 42.6C54.7591 42.6 54.4258 42.7267 54.0258 42.98C53.6258 43.2333 53.2391 43.5667 52.8658 43.98C52.2924 44.62 51.8524 45.3333 51.5458 46.12C51.2524 46.8933 51.1058 47.7067 51.1058 48.56C51.1058 49.64 51.3458 50.2867 51.8258 50.5C52.0258 50.4733 52.2591 50.4133 52.5258 50.32C52.7924 50.2267 53.0791 50.1067 53.3858 49.96C53.6924 49.8 54.0058 49.62 54.3258 49.42C54.6591 49.22 54.9791 49.0067 55.2858 48.78C55.3391 48.82 55.3858 48.88 55.4258 48.96C55.4658 49.04 55.4858 49.1133 55.4858 49.18C55.2591 49.46 54.9991 49.7333 54.7058 50C54.4124 50.2667 54.1058 50.5133 53.7858 50.74C53.4658 50.9533 53.1524 51.1333 52.8458 51.28C52.5524 51.44 52.2924 51.54 52.0658 51.58C51.6258 51.54 51.2124 51.4 50.8258 51.16C50.4391 50.9333 50.0991 50.6333 49.8058 50.26C49.5258 49.8867 49.2991 49.46 49.1258 48.98C48.9658 48.5 48.8858 48 48.8858 47.48ZM58.0042 49.12C58.0042 48.64 58.1242 47.9733 58.3642 47.12C58.6176 46.2667 58.9442 45.3333 59.3442 44.32C59.7442 43.3067 60.1976 42.26 60.7042 41.18C61.2109 40.1 61.7176 39.0933 62.2242 38.16C62.7442 37.2267 63.2376 36.42 63.7042 35.74C64.1842 35.06 64.5909 34.6 64.9242 34.36C65.1109 34.3733 65.3109 34.4533 65.5242 34.6C65.7509 34.7467 65.9576 34.9267 66.1442 35.14C66.3309 35.34 66.4842 35.5533 66.6042 35.78C66.7376 36.0067 66.8042 36.2133 66.8042 36.4C66.2042 36.88 65.5909 37.5 64.9642 38.26C64.3509 39.0067 63.7642 39.8333 63.2042 40.74C62.6442 41.6333 62.1242 42.5867 61.6442 43.6C61.1776 44.6 60.7842 45.5867 60.4642 46.56C60.8909 45.8267 61.3376 45.16 61.8042 44.56C62.2709 43.96 62.7376 43.4467 63.2042 43.02C63.6709 42.5933 64.1242 42.2667 64.5642 42.04C65.0176 41.8 65.4442 41.6733 65.8442 41.66C66.4309 42.0867 66.7242 42.6533 66.7242 43.36C66.7242 43.7867 66.6376 44.22 66.4642 44.66C66.2909 45.0867 66.0576 45.4867 65.7642 45.86C65.4842 46.22 65.1576 46.5333 64.7842 46.8C64.4242 47.0533 64.0442 47.22 63.6442 47.3C63.7776 47.7667 63.9442 48.24 64.1442 48.72C64.3576 49.2 64.6042 49.6667 64.8842 50.12C65.1776 50.5733 65.5042 50.9933 65.8642 51.38C66.2376 51.7667 66.6576 52.0933 67.1242 52.36C67.0576 52.4933 66.9576 52.6267 66.8242 52.76C66.6909 52.8933 66.5309 53.0067 66.3442 53.1C66.1576 53.2067 65.9509 53.2867 65.7242 53.34C65.5109 53.4067 65.2976 53.44 65.0842 53.44C64.7242 53.44 64.3842 53.26 64.0642 52.9C63.7576 52.54 63.4776 52.02 63.2242 51.34C63.0242 50.7933 62.8309 50.14 62.6442 49.38C62.4576 48.62 62.2909 47.8267 62.1442 47C62.3309 46.88 62.5642 46.7067 62.8442 46.48C63.1242 46.24 63.4176 45.9667 63.7242 45.66C64.8976 44.5267 65.4842 43.5467 65.4842 42.72C65.4842 42.6133 65.4109 42.56 65.2642 42.56C64.9976 42.5733 64.6842 42.7 64.3242 42.94C63.9642 43.18 63.5776 43.5133 63.1642 43.94C62.7642 44.3667 62.3509 44.8667 61.9242 45.44C61.5109 46.0133 61.1109 46.6333 60.7242 47.3C60.5642 47.5667 60.4176 47.8733 60.2842 48.22C60.1509 48.5667 60.0309 48.9267 59.9242 49.3C59.8309 49.66 59.7576 50.02 59.7042 50.38C59.6509 50.74 59.6242 51.0733 59.6242 51.38C59.6242 51.5667 59.6442 51.72 59.6842 51.84C59.2709 51.8 59.0176 51.6933 58.9242 51.52C58.8176 51.36 58.7242 51.2267 58.6442 51.12C58.5776 51.0267 58.5042 50.9467 58.4242 50.88C58.3042 50.7867 58.2042 50.5867 58.1242 50.28C58.0442 49.9733 58.0042 49.5867 58.0042 49.12ZM24.92 70.66C24.92 70.1933 24.9667 69.6467 25.06 69.02C25.1533 68.38 25.2867 67.7 25.46 66.98C25.6467 66.26 25.86 65.5067 26.1 64.72C26.3533 63.9333 26.6333 63.1467 26.94 62.36C27.2067 61.6533 27.5133 60.94 27.86 60.22C28.22 59.5 28.6067 58.7933 29.02 58.1C29.4333 57.4067 29.86 56.7467 30.3 56.12C30.7533 55.4933 31.2067 54.92 31.66 54.4C31.8733 54.4 32.1 54.4267 32.34 54.48C32.5933 54.5333 32.8333 54.6067 33.06 54.7C33.3 54.78 33.5133 54.88 33.7 55C33.9 55.12 34.06 55.24 34.18 55.36C33.18 56.3867 32.28 57.4267 31.48 58.48C30.68 59.52 30.0467 60.5 29.58 61.42C29.3267 61.9267 29.0933 62.4 28.88 62.84C28.68 63.28 28.4933 63.72 28.32 64.16C28.1467 64.5867 27.9867 65.02 27.84 65.46C27.7067 65.8867 27.58 66.34 27.46 66.82C30.02 63.5533 31.92 61.92 33.16 61.92C33.5067 61.92 33.88 62.0333 34.28 62.26C34.68 62.4867 35.0333 62.7933 35.34 63.18C34.9267 63.6333 34.5 64.18 34.06 64.82C33.62 65.46 33.2133 66.1067 32.84 66.76C32.48 67.4 32.18 68 31.94 68.56C31.7133 69.1067 31.6 69.5133 31.6 69.78C31.6 69.9133 31.62 70.0067 31.66 70.06C31.7 70.1 31.7867 70.12 31.92 70.12C32.12 70.12 32.28 70.0933 32.4 70.04C32.52 69.9867 32.5933 69.96 32.62 69.96C32.6867 70.0667 32.7267 70.14 32.74 70.18C32.7533 70.22 32.76 70.2533 32.76 70.28C32.76 70.3333 32.68 70.4133 32.52 70.52C32.36 70.6133 32.1667 70.7133 31.94 70.82C31.7267 70.9133 31.5133 71 31.3 71.08C31.0867 71.16 30.9267 71.2 30.82 71.2C30.6867 71.2 30.5533 71.16 30.42 71.08C30.2867 71.0133 30.1667 70.92 30.06 70.8C29.9667 70.68 29.8867 70.5467 29.82 70.4C29.7667 70.2533 29.74 70.1 29.74 69.94C29.74 69.74 29.7933 69.4467 29.9 69.06C30.02 68.66 30.18 68.2 30.38 67.68C30.58 67.1467 30.82 66.5667 31.1 65.94C31.38 65.3133 31.68 64.6733 32 64.02C32 63.9667 31.9733 63.94 31.92 63.94C31.88 63.94 31.7733 63.9933 31.6 64.1C31.44 64.2067 31.2867 64.3133 31.14 64.42C30.66 64.78 30.1733 65.2267 29.68 65.76C29.2 66.28 28.7267 66.8533 28.26 67.48C27.8067 68.1067 27.3733 68.7733 26.96 69.48C26.56 70.1733 26.2133 70.8733 25.92 71.58C25.88 71.6733 25.82 71.76 25.74 71.84C25.66 71.92 25.5933 71.96 25.54 71.96C25.5 71.96 25.44 71.9133 25.36 71.82C25.2933 71.7267 25.2267 71.6067 25.16 71.46C25.1067 71.3267 25.0533 71.1867 25 71.04C24.9467 70.8933 24.92 70.7667 24.92 70.66ZM43.232 62.72C43.1787 63.5467 43.032 64.26 42.792 64.86C42.552 65.4467 42.2054 65.9667 41.752 66.42C41.312 66.86 40.772 67.26 40.132 67.62C39.492 67.98 38.7454 68.3267 37.892 68.66C37.892 68.74 37.8854 68.8267 37.872 68.92C37.872 69 37.872 69.0867 37.872 69.18C37.872 69.3533 37.8854 69.5333 37.912 69.72C37.9387 69.9067 37.9854 70.08 38.052 70.24C38.1187 70.4 38.212 70.5333 38.332 70.64C38.452 70.7333 38.6054 70.78 38.792 70.78C39.152 70.78 39.5054 70.7 39.852 70.54C40.1987 70.38 40.5254 70.1867 40.832 69.96C41.152 69.72 41.4454 69.4667 41.712 69.2C41.992 68.92 42.2387 68.6667 42.452 68.44C42.5854 68.56 42.6987 68.6733 42.792 68.78C42.192 69.58 41.532 70.2467 40.812 70.78C40.1054 71.3 39.432 71.6333 38.792 71.78C37.872 71.6733 37.152 71.34 36.632 70.78C36.1254 70.2067 35.872 69.52 35.872 68.72C35.872 68.1733 35.9454 67.62 36.092 67.06C36.252 66.4867 36.4654 65.94 36.732 65.42C37.012 64.8867 37.332 64.3867 37.692 63.92C38.0654 63.4533 38.4587 63.0467 38.872 62.7C39.2987 62.3533 39.732 62.08 40.172 61.88C40.6254 61.68 41.072 61.58 41.512 61.58C42.1254 61.66 42.6987 62.04 43.232 62.72ZM41.852 63.38C41.492 63.4333 41.1187 63.58 40.732 63.82C40.3454 64.06 39.9787 64.38 39.632 64.78C39.2987 65.18 38.992 65.6467 38.712 66.18C38.432 66.7133 38.212 67.2867 38.052 67.9C39.1187 67.3667 40.0054 66.7133 40.712 65.94C41.4187 65.1533 41.7987 64.3 41.852 63.38ZM44.478 70.6C44.5446 70.2133 44.658 69.7067 44.818 69.08C44.9913 68.44 45.1913 67.7667 45.418 67.06C45.6446 66.34 45.8846 65.62 46.138 64.9C46.3913 64.18 46.638 63.5333 46.878 62.96C47.0513 62.5467 47.2046 62.2267 47.338 62C47.4713 61.76 47.618 61.56 47.778 61.4C47.9646 61.4267 48.158 61.4733 48.358 61.54C48.558 61.6067 48.7513 61.6867 48.938 61.78C49.1246 61.8733 49.2913 61.9733 49.438 62.08C49.5846 62.1733 49.698 62.2667 49.778 62.36C49.418 62.7867 49.098 63.2733 48.818 63.82C48.5513 64.3667 48.278 65.0667 47.998 65.92C48.718 65.28 49.3513 64.6667 49.898 64.08C50.458 63.4933 50.978 62.84 51.458 62.12C51.538 62.0533 51.678 62.02 51.878 62.02C52.0646 62.02 52.2446 62.0533 52.418 62.12C52.5913 62.1733 52.7113 62.2533 52.778 62.36C52.538 63 52.418 63.6333 52.418 64.26C52.418 64.8467 52.5046 65.2867 52.678 65.58C52.6646 65.66 52.5713 65.8133 52.398 66.04C52.238 66.2667 52.058 66.48 51.858 66.68C51.498 66.4933 51.178 66.24 50.898 65.92C50.618 65.5867 50.4113 65.2267 50.278 64.84C49.6513 65.28 49.118 65.7133 48.678 66.14C48.238 66.5533 47.858 67.02 47.538 67.54C47.2313 68.0467 46.9646 68.6333 46.738 69.3C46.5246 69.9667 46.318 70.76 46.118 71.68C45.998 71.6667 45.8513 71.62 45.678 71.54C45.518 71.4733 45.3513 71.3867 45.178 71.28C45.018 71.1733 44.8713 71.06 44.738 70.94C44.6046 70.82 44.518 70.7067 44.478 70.6ZM60.9844 62.72C60.931 63.5467 60.7844 64.26 60.5444 64.86C60.3044 65.4467 59.9577 65.9667 59.5044 66.42C59.0644 66.86 58.5244 67.26 57.8844 67.62C57.2444 67.98 56.4977 68.3267 55.6444 68.66C55.6444 68.74 55.6377 68.8267 55.6244 68.92C55.6244 69 55.6244 69.0867 55.6244 69.18C55.6244 69.3533 55.6377 69.5333 55.6644 69.72C55.691 69.9067 55.7377 70.08 55.8044 70.24C55.871 70.4 55.9644 70.5333 56.0844 70.64C56.2044 70.7333 56.3577 70.78 56.5444 70.78C56.9044 70.78 57.2577 70.7 57.6044 70.54C57.951 70.38 58.2777 70.1867 58.5844 69.96C58.9044 69.72 59.1977 69.4667 59.4644 69.2C59.7444 68.92 59.991 68.6667 60.2044 68.44C60.3377 68.56 60.451 68.6733 60.5444 68.78C59.9444 69.58 59.2844 70.2467 58.5644 70.78C57.8577 71.3 57.1844 71.6333 56.5444 71.78C55.6244 71.6733 54.9044 71.34 54.3844 70.78C53.8777 70.2067 53.6244 69.52 53.6244 68.72C53.6244 68.1733 53.6977 67.62 53.8444 67.06C54.0044 66.4867 54.2177 65.94 54.4844 65.42C54.7644 64.8867 55.0844 64.3867 55.4444 63.92C55.8177 63.4533 56.211 63.0467 56.6244 62.7C57.051 62.3533 57.4844 62.08 57.9244 61.88C58.3777 61.68 58.8244 61.58 59.2644 61.58C59.8777 61.66 60.451 62.04 60.9844 62.72ZM59.6044 63.38C59.2444 63.4333 58.871 63.58 58.4844 63.82C58.0977 64.06 57.731 64.38 57.3844 64.78C57.051 65.18 56.7444 65.6467 56.4644 66.18C56.1844 66.7133 55.9644 67.2867 55.8044 67.9C56.871 67.3667 57.7577 66.7133 58.4644 65.94C59.171 65.1533 59.551 64.3 59.6044 63.38ZM63.6303 67.24C63.6303 66.88 63.7236 66.36 63.9103 65.68C64.1103 64.9867 64.3636 64.2267 64.6703 63.4C64.977 62.56 65.3236 61.7 65.7103 60.82C66.097 59.9267 66.4836 59.0933 66.8703 58.32C67.2703 57.5467 67.6503 56.88 68.0103 56.32C68.3703 55.7467 68.6836 55.3667 68.9503 55.18C69.1636 55.22 69.3903 55.32 69.6303 55.48C69.8836 55.6267 70.117 55.8 70.3303 56C70.5436 56.1867 70.7303 56.3867 70.8903 56.6C71.0503 56.8133 71.1436 57 71.1703 57.16C70.4903 57.72 69.817 58.42 69.1503 59.26C68.4836 60.0867 67.8636 61.0067 67.2903 62.02C66.7303 63.0333 66.237 64.12 65.8103 65.28C65.3836 66.4267 65.0636 67.6 64.8503 68.8C64.6903 68.76 64.5303 68.7133 64.3703 68.66C64.2236 68.5933 64.097 68.5067 63.9903 68.4C63.8836 68.2933 63.797 68.1467 63.7303 67.96C63.6636 67.7733 63.6303 67.5333 63.6303 67.24ZM63.1903 72.54C63.0303 72.54 62.877 72.5 62.7303 72.42C62.5836 72.3533 62.4503 72.2667 62.3303 72.16C62.2236 72.0667 62.137 71.96 62.0703 71.84C62.0036 71.7333 61.9703 71.6467 61.9703 71.58C61.9703 71.42 61.9903 71.2133 62.0303 70.96C62.0703 70.7067 62.1303 70.4667 62.2103 70.24C62.2903 70 62.3903 69.8 62.5103 69.64C62.6303 69.4667 62.7636 69.38 62.9103 69.38C63.2836 69.38 63.657 69.5133 64.0303 69.78C64.417 70.0333 64.7036 70.32 64.8903 70.64C64.7303 70.8133 64.5903 71.0067 64.4703 71.22C64.3503 71.4467 64.2303 71.6533 64.1103 71.84C63.9903 72.04 63.857 72.2067 63.7103 72.34C63.5636 72.4733 63.3903 72.54 63.1903 72.54Z" fill="black"/>
<path d="M46.2904 28.6373L46.3883 29.3809L47.8755 29.1851L47.7776 28.4415L46.2904 28.6373ZM0.893304 4.56886C0.483303 4.62778 0.198701 5.00792 0.257628 5.41792C0.316555 5.82792 0.696696 6.11253 1.1067 6.0536L0.893304 4.56886ZM47.034 28.5394L47.7776 28.4415C47.3793 25.4156 45.164 22.2875 41.9973 19.3757C38.8064 16.4418 34.5434 13.6299 29.8413 11.2497C20.4666 6.50439 9.15557 3.38137 0.893304 4.56886L1 5.31123L1.1067 6.0536C8.92548 4.92985 19.905 7.90132 29.1638 12.5881C33.7784 14.9239 37.9179 17.6625 40.982 20.4799C44.0702 23.3195 45.9622 26.1436 46.2904 28.6373L47.034 28.5394Z" fill="black"/>
<path d="M1.08105 5.24515C3.17644 4.86417 8.75428 2.21785 10.5811 1" stroke="black" stroke-width="1.5" stroke-linecap="round"/>
<path d="M1.08105 5.35495C3.17644 5.73593 8.75428 8.38225 10.5811 9.6001" stroke="black" stroke-width="1.5" stroke-linecap="round"/>
</svg>
